<?xml version="1.0" standalone="no"?>
<!DOCTYPE svg PUBLIC "-//W3C//DTD SVG 20010904//EN"
 "http://www.w3.org/TR/2001/REC-SVG-20010904/DTD/svg10.dtd">
<svg version="1.0" xmlns="http://www.w3.org/2000/svg"
 width="700.000000pt" height="700.000000pt" viewBox="0 0 700.000000 700.000000"
 preserveAspectRatio="xMidYMid meet">
<metadata>
Created by potrace 1.11, written by Peter Selinger 2001-2013
</metadata>
<g transform="translate(0.000000,700.000000) scale(0.100000,-0.100000)"
fill="#000000" stroke="none">
<path d="M4602 6714 c-93 -25 -186 -96 -239 -184 -19 -32 -79 -195 -293 -795
-45 -126 -85 -239 -90 -250 -5 -11 -21 -53 -35 -92 -14 -40 -36 -106 -50 -145
-14 -40 -30 -82 -34 -93 -5 -11 -21 -56 -36 -100 -15 -44 -31 -89 -36 -100 -5
-11 -29 -76 -53 -145 -24 -69 -63 -177 -86 -240 -23 -63 -45 -126 -50 -140 -4
-14 -31 -88 -60 -165 -28 -77 -68 -189 -90 -250 -92 -263 -183 -511 -190 -518
-4 -4 -49 56 -101 135 -51 79 -190 289 -308 468 -118 179 -283 431 -368 560
-84 129 -176 261 -204 293 -81 92 -194 139 -317 132 -140 -8 -257 -79 -327
-200 -27 -46 -31 -58 -235 -685 -83 -256 -171 -523 -194 -595 -24 -71 -89
-272 -145 -445 -57 -173 -116 -353 -131 -400 -16 -47 -92 -281 -170 -520 -78
-239 -182 -556 -230 -705 -203 -617 -240 -733 -251 -785 -36 -170 55 -357 210
-434 200 -99 441 -24 538 167 20 40 136 371 147 422 1 6 23 73 48 150 25 77
117 356 203 620 86 264 169 518 185 565 15 47 83 254 150 460 67 206 143 440
170 520 26 80 75 232 110 338 34 105 66 192 71 192 5 0 16 -14 25 -32 9 -17
20 -36 26 -42 5 -6 61 -90 124 -186 63 -96 182 -276 263 -400 549 -834 527
-803 616 -856 116 -68 285 -68 398 0 85 51 140 115 177 206 12 30 26 64 30 75
5 11 33 90 63 175 31 85 157 439 282 785 124 347 267 743 316 880 49 138 98
273 109 300 10 28 32 88 48 135 57 160 81 225 81 218 1 -3 40 -141 87 -305 47
-164 87 -306 89 -317 2 -10 13 -48 25 -85 11 -36 52 -178 90 -316 67 -237 88
-310 130 -450 10 -33 23 -80 30 -105 6 -25 20 -74 31 -110 15 -51 336 -1174
354 -1240 28 -99 53 -189 105 -370 34 -118 63 -219 64 -225 3 -10 23 -80 57
-195 43 -147 115 -402 129 -455 28 -108 91 -308 110 -348 42 -88 144 -170 258
-206 19 -6 71 -9 117 -7 155 5 279 89 348 236 26 54 31 78 33 150 2 75 -3 103
-43 240 -25 85 -62 216 -83 290 -21 74 -99 346 -173 605 -74 259 -137 479
-140 490 -3 11 -94 328 -202 705 -108 377 -198 692 -200 700 -2 8 -4 15 -5 15
-1 0 -3 7 -5 15 -6 28 -150 539 -199 705 -13 44 -26 89 -29 100 -3 11 -58 202
-122 425 -64 223 -117 410 -119 415 -1 6 -5 16 -9 23 -5 6 -6 12 -3 12 3 0 -1
19 -10 41 -8 23 -16 51 -18 63 -5 23 -129 462 -145 511 -6 17 -37 126 -70 243
-34 117 -70 231 -82 255 -85 166 -282 251 -467 201z"/>
</g>
</svg>
